<?xml version="1.0" encoding="UTF-8"?>
<svg id="_レイヤー_2" data-name="レイヤー 2" xmlns="http://www.w3.org/2000/svg" viewBox="0 0 59.61 58.3">
  <defs>
    <style>
      .cls-1 {
        fill: #973023;
        font-family: HGMaruGothicMPRO, HGMaruGothicMPRO;
        font-size: 24px;
      }

      .cls-2 {
        fill: #fff;
      }
    </style>
  </defs>
  <g id="_レイヤー_1-2" data-name="レイヤー 1">
    <path class="cls-2" d="m58.05,49.6l-14.17-14.17c-.27-.27-.32-.69-.12-1.03,2.47-4.06,3.7-8.96,3.15-14.16C45.8,9.68,37.23,1.16,26.65.11,12.34-1.3.36,10.69,1.8,25.01c1.05,10.48,9.44,19,19.91,20.2,5.13.59,9.96-.55,14.01-2.91.33-.19.74-.14,1.01.12l14.42,14.42c.98.98,2.26,1.46,3.54,1.46s2.45-.45,3.41-1.34c2.08-1.94,1.98-5.35-.04-7.36ZM7.68,22.68c0-9.2,7.48-16.68,16.68-16.68s16.68,7.48,16.68,16.68-7.48,16.68-16.68,16.68S7.68,31.88,7.68,22.68Z"/>
    <text class="cls-1" transform="translate(0 32.67)"><tspan x="0" y="0">詳細</tspan></text>
  </g>
</svg>