<?xml version="1.0" encoding="UTF-8"?>
<svg id="_レイヤー_2" data-name=" レイヤー 2" xmlns="http://www.w3.org/2000/svg" viewBox="0 0 203.38 108.82">
  <defs>
    <style>
      .cls-1 {
        fill: #ff8931;
      }
    </style>
  </defs>
  <g id="_レイヤー_3" data-name=" レイヤー 3">
    <path class="cls-1" d="m1.17,36.56c-.02-10.76,4.3-21.81,12.79-28.42C26.69-1.77,39.8-1.48,46.68,2.93c6.39,4.1,14.02,18.31,17.51,21.55,9.92,9.24,19.54,8.17,30.7,15.87,8.77,6.05,13.12,10.5,16.23,20.68,2.66,8.72.89,19.62-3.44,27.65-3.53,6.54-8.61,12.73-15.73,15.94-13.98,6.32-32.24,5.1-46.35-.94C22.12,93.65,1.22,63.78,1.17,36.56Z"/>
  </g>
  <g id="_レイヤー_3-2" data-name=" レイヤー 3-2">
    <path class="cls-1" d="m92.17,36.56c-.02-10.76,4.3-21.81,12.79-28.42,12.73-9.91,25.84-9.62,32.72-5.21,6.39,4.1,14.02,18.31,17.51,21.55,9.92,9.24,19.54,8.17,30.7,15.87,8.77,6.05,13.12,10.5,16.23,20.68,2.66,8.72.89,19.62-3.44,27.65-3.53,6.54-8.61,12.73-15.73,15.94-13.98,6.32-32.24,5.1-46.35-.94-23.48-10.03-44.38-39.9-44.43-67.12Z"/>
  </g>
</svg>