<?xml version="1.0" encoding="utf-8"?>
<!-- Generator: Adobe Illustrator 27.4.1, SVG Export Plug-In . SVG Version: 6.00 Build 0)  -->
<svg version="1.1" id="_レイヤー_2" xmlns="http://www.w3.org/2000/svg" xmlns:xlink="http://www.w3.org/1999/xlink" x="0px"
	 y="0px" viewBox="0 0 293.2 108.8" style="enable-background:new 0 0 293.2 108.8;" xml:space="preserve">
<style type="text/css">
	.st0{fill:#FF8931;}
</style>
<g id="_レイヤー_3">
	<path class="st0" d="M0,36.6C0,25.8,4.3,14.7,12.8,8.1c12.7-9.9,25.8-9.6,32.7-5.2C51.9,7,59.5,21.2,63,24.5
		c9.9,9.2,19.5,8.2,30.7,15.9c8.8,6,13.1,10.5,16.2,20.7c2.7,8.7,0.9,19.6-3.4,27.7c-3.5,6.5-8.6,12.7-15.7,15.9
		c-14,6.3-32.2,5.1-46.3-0.9C21,93.6,0.1,63.8,0,36.6z"/>
</g>
<g id="_レイヤー_3-2">
	<path class="st0" d="M91,36.6c0-10.8,4.3-21.8,12.8-28.4c12.7-9.9,25.8-9.6,32.7-5.2c6.4,4.1,14,18.3,17.5,21.5
		c9.9,9.2,19.5,8.2,30.7,15.9c8.8,6,13.1,10.5,16.2,20.7c2.7,8.7,0.9,19.6-3.4,27.7c-3.5,6.5-8.6,12.7-15.7,15.9
		c-14,6.3-32.2,5.1-46.4-0.9C111.9,93.6,91,63.8,91,36.6z"/>
</g>
<g id="_レイヤー_3-3">
	<path class="st0" d="M182,36.6c0-10.8,4.3-21.8,12.8-28.4c12.7-9.9,25.8-9.6,32.7-5.2c6.4,4.1,14,18.3,17.5,21.5
		c9.9,9.2,19.5,8.2,30.7,15.9c8.8,6,13.1,10.5,16.2,20.7c2.7,8.7,0.9,19.6-3.4,27.7c-3.5,6.5-8.6,12.7-15.7,15.9
		c-14,6.3-32.2,5.1-46.4-0.9C202.9,93.6,182,63.8,182,36.6z"/>
</g>
<g id="_レイヤー_3-4">
	<path class="st0" d="M403,36.6c0-10.8,4.3-21.8,12.8-28.4c12.7-9.9,25.8-9.6,32.7-5.2c6.4,4.1,14,18.3,17.5,21.5
		c9.9,9.2,19.5,8.2,30.7,15.9c8.8,6,13.1,10.5,16.2,20.7c2.7,8.7,0.9,19.6-3.4,27.7c-3.5,6.5-8.6,12.7-15.7,15.9
		c-14,6.3-32.2,5.1-46.4-0.9C423.9,93.6,403,63.8,403,36.6z"/>
</g>
<g id="_レイヤー_3-5">
	<path class="st0" d="M91,152.6c0-10.8,4.3-21.8,12.8-28.4c12.7-9.9,25.8-9.6,32.7-5.2c6.4,4.1,14,18.3,17.5,21.5
		c9.9,9.2,19.5,8.2,30.7,15.9c8.8,6.1,13.1,10.5,16.2,20.7c2.7,8.7,0.9,19.6-3.4,27.6c-3.5,6.5-8.6,12.7-15.7,15.9
		c-14,6.3-32.2,5.1-46.4-0.9C111.9,209.6,91,179.8,91,152.6z"/>
</g>
</svg>
