<?xml version="1.0" encoding="UTF-8"?>
<svg id="_レイヤー_2" data-name="レイヤー 2" xmlns="http://www.w3.org/2000/svg" viewBox="0 0 54.3 50.68">
  <g id="_レイヤー_1-2" data-name="レイヤー 1">
    <path d="m21.06,1.24c44.47-10.57,44.23,50.53-.2,39.4-7.83-2.83-4.23,1.1-5.04,6.89.05.91,4.37,1.82,1.54,2.97-2.4-.68-11.34,1.72-9.85-1.73,0,0,0,0,0,0,4.41-1.11,2.27-33.68,1.53-37.9-1.88,1.99-5.53,4.05-5.2,7.07.1.81.07,1.91-.89,2.11-6.85-5.38-.36-9.27,4.75-12.95,0,0,0,0,0,0,4.26-2.19,8.67-4.8,13.36-5.87Zm13.2,2.73C9.58-.99,15.92,19.51,16.29,35.89c24.61,13.59,46.16-22.28,17.97-31.92Z"/>
  </g>
</svg>