<?xml version="1.0" encoding="UTF-8"?>
<svg id="_レイヤー_2" data-name="レイヤー 2" xmlns="http://www.w3.org/2000/svg" viewBox="0 0 122.97 102.86">
  <defs>
    <style>
      .cls-1 {
        fill: #040000;
      }
    </style>
  </defs>
  <g id="_レイヤー_2-2" data-name="レイヤー 2">
    <path class="cls-1" d="m122.97,13.32c-6.11,3.27-13.7,3.06-13.7,3.06,9.91-4.95,10.33-13.38,10.33-13.38-6.95,5.37-14.88,5.8-14.88,5.8h0c-4.68-5.39-11.57-8.8-19.26-8.8-14.08,0-25.5,11.42-25.5,25.5,0,2.25.29,4.44.84,6.52C29.14,32.33,6.96,5.58,6.96,5.58-3.19,27.18,15.63,39.84,15.63,39.84c-5.72-.57-8.14-1.56-12.1-2.63,2.23,21.24,20.23,24.95,20.23,24.95-2.98,1.54-6.79,1.65-10.7,1.16,6.89,17.05,23.87,17.25,23.87,17.25-9.57,8.13-21.02,11.43-33.83,11.43-.85,0-1.7-.02-2.54-.05l-.55-.17c11.16,6.89,24.84,11.08,38.92,11.08,40.42,0,74.07-32.78,72.56-78.16,8.01-4.74,11.48-11.38,11.48-11.38Z"/>
  </g>
</svg>